<svg width="148" height="36" viewBox="0 0 148 36" fill="none" xmlns="http://www.w3.org/2000/svg">
<path d="M131.5 29.907C134.526 29.522 137.292 27.9992 139.235 25.6482C141.179 23.2971 142.154 20.2943 141.963 17.25C141.772 14.2056 140.429 11.3482 138.207 9.25857C135.985 7.16891 133.05 6.00378 130 6C126.946 5.99773 124.006 7.16001 121.779 9.25002C119.552 11.34 118.206 14.2005 118.015 17.2486C117.823 20.2966 118.802 23.3029 120.75 25.6549C122.698 28.0069 125.47 29.5275 128.5 29.907V21H125.5V18H128.5V15.519C128.5 13.5135 128.71 12.786 129.1 12.0525C129.484 11.3268 130.078 10.7335 130.804 10.35C131.377 10.0425 132.089 9.858 133.334 9.7785C133.828 9.747 134.467 9.786 135.252 9.8985V12.7485H134.5C133.125 12.7485 132.556 12.813 132.217 12.9945C132.015 13.0985 131.85 13.2632 131.746 13.4655C131.566 13.8045 131.5 14.1405 131.5 15.5175V18H135.25L134.5 21H131.5V29.907ZM130 33C121.716 33 115 26.2845 115 18C115 9.7155 121.716 3 130 3C138.285 3 145 9.7155 145 18C145 26.2845 138.285 33 130 33Z" fill="white"/>
<path d="M74 13.5C72.8065 13.5 71.6619 13.9741 70.818 14.818C69.9741 15.6619 69.5 16.8065 69.5 18C69.5 19.1935 69.9741 20.3381 70.818 21.182C71.6619 22.0259 72.8065 22.5 74 22.5C75.1935 22.5 76.3381 22.0259 77.182 21.182C78.0259 20.3381 78.5 19.1935 78.5 18C78.5 16.8065 78.0259 15.6619 77.182 14.818C76.3381 13.9741 75.1935 13.5 74 13.5ZM74 10.5C75.9891 10.5 77.8968 11.2902 79.3033 12.6967C80.7098 14.1032 81.5 16.0109 81.5 18C81.5 19.9891 80.7098 21.8968 79.3033 23.3033C77.8968 24.7098 75.9891 25.5 74 25.5C72.0109 25.5 70.1032 24.7098 68.6967 23.3033C67.2902 21.8968 66.5 19.9891 66.5 18C66.5 16.0109 67.2902 14.1032 68.6967 12.6967C70.1032 11.2902 72.0109 10.5 74 10.5ZM83.75 10.125C83.75 10.6223 83.5525 11.0992 83.2008 11.4508C82.8492 11.8025 82.3723 12 81.875 12C81.3777 12 80.9008 11.8025 80.5492 11.4508C80.1975 11.0992 80 10.6223 80 10.125C80 9.62772 80.1975 9.15081 80.5492 8.79917C80.9008 8.44754 81.3777 8.25 81.875 8.25C82.3723 8.25 82.8492 8.44754 83.2008 8.79917C83.5525 9.15081 83.75 9.62772 83.75 10.125ZM74 6C70.289 6 69.683 6.0105 67.9565 6.087C66.7805 6.1425 65.9915 6.3 65.2595 6.585C64.6085 6.837 64.139 7.1385 63.6395 7.6395C63.17 8.0931 62.809 8.64688 62.5835 9.2595C62.2985 9.9945 62.141 10.782 62.087 11.9565C62.009 13.6125 62 14.1915 62 18C62 21.711 62.0105 22.317 62.087 24.0435C62.1425 25.218 62.3 26.0085 62.5835 26.739C62.8385 27.3915 63.1385 27.861 63.6365 28.359C64.142 28.863 64.6115 29.1645 65.2565 29.4135C65.9975 29.7 66.7865 29.859 67.9565 29.913C69.6125 29.991 70.1915 30 74 30C77.711 30 78.317 29.9895 80.0435 29.913C81.2165 29.8575 82.007 29.7 82.739 29.4165C83.3885 29.163 83.861 28.8615 84.359 28.3635C84.8645 27.858 85.166 27.3885 85.415 26.7435C85.7 26.004 85.859 25.2135 85.913 24.0435C85.991 22.3875 86 21.8085 86 18C86 14.289 85.9895 13.683 85.913 11.9565C85.8575 10.7835 85.7 9.9915 85.415 9.2595C85.1889 8.6475 84.8286 8.09394 84.3605 7.6395C83.9071 7.16977 83.3533 6.80875 82.7405 6.5835C82.0055 6.2985 81.2165 6.141 80.0435 6.087C78.3875 6.009 77.8085 6 74 6ZM74 3C78.0755 3 78.584 3.015 80.183 3.09C81.7805 3.165 82.868 3.4155 83.825 3.7875C84.815 4.1685 85.649 4.6845 86.483 5.517C87.2457 6.26684 87.8359 7.17388 88.2125 8.175C88.583 9.1305 88.835 10.2195 88.91 11.817C88.9805 13.416 89 13.9245 89 18C89 22.0755 88.985 22.584 88.91 24.183C88.835 25.7805 88.583 26.868 88.2125 27.825C87.837 28.8267 87.2467 29.7339 86.483 30.483C85.7329 31.2455 84.826 31.8356 83.825 32.2125C82.8695 32.583 81.7805 32.835 80.183 32.91C78.584 32.9805 78.0755 33 74 33C69.9245 33 69.416 32.985 67.817 32.91C66.2195 32.835 65.132 32.583 64.175 32.2125C63.1735 31.8367 62.2663 31.2464 61.517 30.483C60.7541 29.7333 60.1639 28.8262 59.7875 27.825C59.4155 26.8695 59.165 25.7805 59.09 24.183C59.0195 22.584 59 22.0755 59 18C59 13.9245 59.015 13.416 59.09 11.817C59.165 10.218 59.4155 9.132 59.7875 8.175C60.1629 7.17327 60.7532 6.26598 61.517 5.517C62.2665 4.75385 63.1736 4.16359 64.175 3.7875C65.132 3.4155 66.218 3.165 67.817 3.09C69.416 3.0195 69.9245 3 74 3Z" fill="white"/>
<path d="M18 30C21.1826 30 24.2348 28.7357 26.4853 26.4853C28.7357 24.2348 30 21.1826 30 18C30 14.8174 28.7357 11.7652 26.4853 9.51472C24.2348 7.26428 21.1826 6 18 6C14.8174 6 11.7652 7.26428 9.51472 9.51472C7.26428 11.7652 6 14.8174 6 18C6 21.1826 7.26428 24.2348 9.51472 26.4853C11.7652 28.7357 14.8174 30 18 30ZM18 33C9.7155 33 3 26.2845 3 18C3 9.7155 9.7155 3 18 3C26.2845 3 33 9.7155 33 18C33 26.2845 26.2845 33 18 33ZM13.335 19.755L9.588 18.5865C8.778 18.339 8.7735 17.781 9.7695 17.3805L24.369 11.7405C25.2165 11.3955 25.6965 11.832 25.422 12.9255L22.9365 24.6555C22.7625 25.491 22.26 25.6905 21.5625 25.305L17.736 22.473L15.9525 24.195C15.7695 24.372 15.621 24.5235 15.339 24.561C15.0585 24.6 14.8275 24.516 14.658 24.051L13.353 19.7445L13.335 19.7565V19.755Z" fill="white"/>
</svg>
