<svg width="91" height="31" viewBox="0 0 91 31" fill="none" xmlns="http://www.w3.org/2000/svg">
<path d="M10.3182 26.4372C8.44736 26.4372 6.75877 26.0728 5.2524 25.3439C3.74603 24.5907 2.54336 23.4609 1.6444 21.9545C0.769731 20.4482 0.332397 18.5409 0.332397 16.2328V0.48877H4.99729V16.2692C4.99729 18.2615 5.47106 19.7436 6.41862 20.7154C7.39047 21.6873 8.72677 22.1732 10.4275 22.1732C12.104 22.1732 13.4281 21.6873 14.4 20.7154C15.3718 19.7436 15.8577 18.2615 15.8577 16.2692V0.48877H20.5226V16.2328C20.5226 18.5409 20.061 20.4482 19.1377 21.9545C18.2145 23.4609 16.9754 24.5907 15.4204 25.3439C13.8897 26.0728 12.189 26.4372 10.3182 26.4372Z" fill="white"/>
<path d="M24.5193 25.9999V22.4283L36.2544 4.38832H24.6286V0.48877H41.6482V4.06032L29.8402 22.1003H41.721V25.9999H24.5193Z" fill="white"/>
<path d="M53.9721 26.3279C52.0405 26.3279 50.3823 25.9179 48.9974 25.0979C47.6125 24.2597 46.5465 23.1025 45.7994 21.6265C45.0523 20.1323 44.6787 18.4103 44.6787 16.4605C44.6787 14.5108 45.0523 12.7888 45.7994 11.2945C46.5465 9.80033 47.6125 8.6341 48.9974 7.79588C50.3823 6.95766 52.0405 6.53855 53.9721 6.53855C56.2681 6.53855 58.145 7.11255 59.6027 8.26055C61.0787 9.39033 61.999 10.9848 62.3634 13.0439H58.5094C58.2725 12.0052 57.7623 11.1943 56.9787 10.6112C56.2134 10.0099 55.193 9.70922 53.9174 9.70922C52.1498 9.70922 50.765 10.3105 49.7627 11.5132C48.7605 12.7159 48.2594 14.365 48.2594 16.4605C48.2594 18.5561 48.7605 20.2052 49.7627 21.4079C50.765 22.5923 52.1498 23.1845 53.9174 23.1845C55.193 23.1845 56.2134 22.9112 56.9787 22.3645C57.7623 21.7997 58.2725 21.0252 58.5094 20.0412H62.3634C61.999 22.0092 61.0787 23.549 59.6027 24.6605C58.145 25.7721 56.2681 26.3279 53.9721 26.3279Z" fill="white"/>
<path d="M70.0524 26.3279C68.8862 26.3279 67.9295 26.1457 67.1824 25.7812C66.4353 25.3985 65.8795 24.8974 65.5151 24.2779C65.1506 23.6583 64.9684 22.975 64.9684 22.2279C64.9684 20.9705 65.4604 19.9501 66.4444 19.1665C67.4284 18.383 68.9044 17.9912 70.8724 17.9912H74.3164V17.6632C74.3164 16.7339 74.0522 16.0505 73.5237 15.6132C72.9953 15.1759 72.3393 14.9572 71.5557 14.9572C70.8451 14.9572 70.2255 15.1303 69.6971 15.4765C69.1686 15.8045 68.8406 16.2965 68.7131 16.9525H65.2964C65.3875 15.9685 65.7155 15.1121 66.2804 14.3832C66.8635 13.6543 67.6106 13.0985 68.5217 12.7159C69.4328 12.315 70.4533 12.1145 71.5831 12.1145C73.5146 12.1145 75.0362 12.5974 76.1477 13.5632C77.2593 14.529 77.8151 15.8957 77.8151 17.6632V25.9999H74.8357L74.5077 23.8132C74.1068 24.5421 73.542 25.1434 72.8131 25.6172C72.1024 26.091 71.1822 26.3279 70.0524 26.3279ZM70.8451 23.5945C71.8473 23.5945 72.6217 23.2665 73.1684 22.6105C73.7333 21.9545 74.0886 21.1437 74.2344 20.1779H71.2551C70.3257 20.1779 69.6606 20.351 69.2597 20.6972C68.8588 21.0252 68.6584 21.4352 68.6584 21.9272C68.6584 22.4557 68.8588 22.8657 69.2597 23.1572C69.6606 23.4488 70.1891 23.5945 70.8451 23.5945Z" fill="white"/>
<path d="M81.1538 25.9999V12.4425H84.2698L84.5978 14.9845C85.0898 14.1099 85.7549 13.4174 86.5931 12.9072C87.4496 12.3788 88.4518 12.1145 89.5998 12.1145V15.8045H88.6158C87.8504 15.8045 87.1671 15.923 86.5658 16.1599C85.9645 16.3968 85.4907 16.8068 85.1445 17.3899C84.8165 17.973 84.6525 18.7839 84.6525 19.8225V25.9999H81.1538Z" fill="white"/>
<path d="M43.4487 29.4165H90.2011V30.7832H43.4487V29.4165Z" fill="white"/>
</svg>
