<svg width="92" height="16" viewBox="0 0 92 16" fill="none" xmlns="http://www.w3.org/2000/svg">
<path d="M8.00002 12.1733L3.29802 14.8053L4.34802 9.51998L0.391357 5.86131L5.74269 5.22665L8.00002 0.333313L10.2574 5.22665L15.6087 5.86131L11.652 9.51998L12.702 14.8053L8.00002 12.1733Z" fill="#FED712"/>
<path d="M27 12.1733L22.298 14.8053L23.348 9.51998L19.3914 5.86131L24.7427 5.22665L27 0.333313L29.2574 5.22665L34.6087 5.86131L30.652 9.51998L31.702 14.8053L27 12.1733Z" fill="#FED712"/>
<path d="M46 12.1733L41.298 14.8053L42.348 9.51998L38.3914 5.86131L43.7427 5.22665L46 0.333313L48.2574 5.22665L53.6087 5.86131L49.652 9.51998L50.702 14.8053L46 12.1733Z" fill="#FED712"/>
<path d="M65 12.1733L60.298 14.8053L61.348 9.51998L57.3914 5.86131L62.7427 5.22665L65 0.333313L67.2574 5.22665L72.6087 5.86131L68.652 9.51998L69.702 14.8053L65 12.1733Z" fill="#FED712"/>
<path d="M84 12.1733L79.298 14.8053L80.348 9.51998L76.3914 5.86131L81.7427 5.22665L84 0.333313L86.2574 5.22665L91.6087 5.86131L87.652 9.51998L88.702 14.8053L84 12.1733Z" fill="#FED712"/>
</svg>
